REM DIRINDEX 1\2\3,1\2\4,1\2\5,1\2\6
REM DIRNAME cjc157,folder01,folder02,folder03,folder04,folder05
TITLE ""
FILE "025 025.mp3" MP3
  TRACK 01 AUDIO
    TITLE "0:"
    INDEX 01 00:00:00
  TRACK 02 AUDIO
    TITLE "3:cjc157_0928"
    INDEX 01 00:00:09
  TRACK 03 AUDIO
    TITLE "0:"
    INDEX 01 00:01:46
  TRACK 04 AUDIO
    TITLE "4:cjc157_0929"
    INDEX 01 00:02:14
  TRACK 05 AUDIO
    TITLE "0:"
    INDEX 01 00:03:25
  TRACK 06 AUDIO
    TITLE "5:cjc157_0930"
    INDEX 01 00:03:72
  TRACK 07 AUDIO
    TITLE "0:"
    INDEX 01 00:06:67
  TRACK 08 AUDIO
    TITLE "3:cjc157_0931"
    INDEX 01 00:07:41
  TRACK 09 AUDIO
    TITLE "0:"
    INDEX 01 00:08:66
  TRACK 10 AUDIO
    TITLE "4:cjc157_0932"
    INDEX 01 00:09:36
  TRACK 11 AUDIO
    TITLE "0:"
    INDEX 01 00:10:57
  TRACK 12 AUDIO
    TITLE "5:cjc157_0933"
    INDEX 01 00:11:25
  TRACK 13 AUDIO
    TITLE "0:"
    INDEX 01 00:14:37
  TRACK 14 AUDIO
    TITLE "3:cjc157_0934"
    INDEX 01 00:15:05
  TRACK 15 AUDIO
    TITLE "0:"
    INDEX 01 00:16:55
  TRACK 16 AUDIO
    TITLE "4:cjc157_0935"
    INDEX 01 00:17:25
  TRACK 17 AUDIO
    TITLE "0:"
    INDEX 01 00:18:41
  TRACK 18 AUDIO
    TITLE "5:cjc157_0936"
    INDEX 01 00:19:05
  TRACK 19 AUDIO
    TITLE "0:"
    INDEX 01 00:21:09
  TRACK 20 AUDIO
    TITLE "5:cjc157_0937"
    INDEX 01 00:21:51
  TRACK 21 AUDIO
    TITLE "0:"
    INDEX 01 00:23:32
  TRACK 22 AUDIO
    TITLE "3:cjc157_0938"
    INDEX 01 00:23:73
  TRACK 23 AUDIO
    TITLE "0:"
    INDEX 01 00:25:33
  TRACK 24 AUDIO
    TITLE "4:cjc157_0939"
    INDEX 01 00:26:03
  TRACK 25 AUDIO
    TITLE "0:"
    INDEX 01 00:27:18
  TRACK 26 AUDIO
    TITLE "5:cjc157_0940"
    INDEX 01 00:27:65
  TRACK 27 AUDIO
    TITLE "0:"
    INDEX 01 00:30:18
  TRACK 28 AUDIO
    TITLE "5:cjc157_0941"
    INDEX 01 00:30:61
  TRACK 29 AUDIO
    TITLE "0:"
    INDEX 01 00:33:01
  TRACK 30 AUDIO
    TITLE "5:cjc157_0942"
    INDEX 01 00:33:48
  TRACK 31 AUDIO
    TITLE "0:"
    INDEX 01 00:34:65
  TRACK 32 AUDIO
    TITLE "3:cjc157_0943"
    INDEX 01 00:35:35
  TRACK 33 AUDIO
    TITLE "0:"
    INDEX 01 00:37:08
  TRACK 34 AUDIO
    TITLE "4:cjc157_0944"
    INDEX 01 00:37:50
  TRACK 35 AUDIO
    TITLE "0:"
    INDEX 01 00:38:63
  TRACK 36 AUDIO
    TITLE "5:cjc157_0945"
    INDEX 01 00:39:35
  TRACK 37 AUDIO
    TITLE "0:"
    INDEX 01 00:42:00
  TRACK 38 AUDIO
    TITLE "5:cjc157_0946"
    INDEX 01 00:42:47
  TRACK 39 AUDIO
    TITLE "0:"
    INDEX 01 00:45:22
  TRACK 40 AUDIO
    TITLE "5:cjc157_0947"
    INDEX 01 00:45:71
  TRACK 41 AUDIO
    TITLE "0:"
    INDEX 01 00:47:50
  TRACK 42 AUDIO
    TITLE "3:cjc157_0948"
    INDEX 01 00:48:20
  TRACK 43 AUDIO
    TITLE "0:"
    INDEX 01 00:49:65
  TRACK 44 AUDIO
    TITLE "4:cjc157_0949"
    INDEX 01 00:50:35
  TRACK 45 AUDIO
    TITLE "0:"
    INDEX 01 00:51:65
  TRACK 46 AUDIO
    TITLE "5:cjc157_0950"
    INDEX 01 00:52:36
  TRACK 47 AUDIO
    TITLE "0:"
    INDEX 01 00:55:53
  TRACK 48 AUDIO
    TITLE "3:cjc157_0951"
    INDEX 01 00:56:24
  TRACK 49 AUDIO
    TITLE "0:"
    INDEX 01 00:57:62
  TRACK 50 AUDIO
    TITLE "4:cjc157_0952"
    INDEX 01 00:58:32
  TRACK 51 AUDIO
    TITLE "0:"
    INDEX 01 00:59:53
  TRACK 52 AUDIO
    TITLE "5:cjc157_0953"
    INDEX 01 01:00:23
  TRACK 53 AUDIO
    TITLE "0:"
    INDEX 01 01:03:35
  TRACK 54 AUDIO
    TITLE "5:cjc157_0954"
    INDEX 01 01:04:19
  TRACK 55 AUDIO
    TITLE "0:"
    INDEX 01 01:07:53
  TRACK 56 AUDIO
    TITLE "3:cjc157_0955"
    INDEX 01 01:08:29
  TRACK 57 AUDIO
    TITLE "0:"
    INDEX 01 01:09:50
  TRACK 58 AUDIO
    TITLE "4:cjc157_0956"
    INDEX 01 01:10:20
  TRACK 59 AUDIO
    TITLE "0:"
    INDEX 01 01:11:27
  TRACK 60 AUDIO
    TITLE "5:cjc157_0957"
    INDEX 01 01:11:74
  TRACK 61 AUDIO
    TITLE "0:"
    INDEX 01 01:14:00
  TRACK 62 AUDIO
    TITLE "5:cjc157_0958"
    INDEX 01 01:14:45
  TRACK 63 AUDIO
    TITLE "0:"
    INDEX 01 01:18:35
  TRACK 64 AUDIO
    TITLE "5:cjc157_0959"
    INDEX 01 01:19:05
  TRACK 65 AUDIO
    TITLE "0:"
    INDEX 01 01:21:37
  TRACK 66 AUDIO
    TITLE "3:cjc157_0960"
    INDEX 01 01:22:07
  TRACK 67 AUDIO
    TITLE "0:"
    INDEX 01 01:23:44
  TRACK 68 AUDIO
    TITLE "4:cjc157_0961"
    INDEX 01 01:24:22
  TRACK 69 AUDIO
    TITLE "0:"
    INDEX 01 01:25:33
  TRACK 70 AUDIO
    TITLE "5:cjc157_0962"
    INDEX 01 01:26:01
  TRACK 71 AUDIO
    TITLE "0:"
    INDEX 01 01:28:59
  TRACK 72 AUDIO
    TITLE "3:cjc157_0963"
    INDEX 01 01:29:29
  TRACK 73 AUDIO
    TITLE "0:"
    INDEX 01 01:31:20
  TRACK 74 AUDIO
    TITLE "4:cjc157_0964"
    INDEX 01 01:31:65
  TRACK 75 AUDIO
    TITLE "0:"
    INDEX 01 01:33:07
  TRACK 76 AUDIO
    TITLE "5:cjc157_0965"
    INDEX 01 01:33:54
  TRACK 77 AUDIO
    TITLE "0:"
    INDEX 01 01:35:67
  TRACK 78 AUDIO
    TITLE "5:cjc157_0966"
    INDEX 01 01:36:33
  TRACK 79 AUDIO
    TITLE "0:"
    INDEX 01 01:38:69
